<?xml version="1.0" encoding="UTF-8" standalone="no"?>
<svg
   viewBox="-20 0 200 200"
   width="512"
   height="512"
   version="1.1"
   id="svg14"
   sodipodi:docname="icon-source.svg"
   inkscape:version="1.4.4 (dcaf3e7d9e, 2026-05-05)"
   xmlns:inkscape="http://www.inkscape.org/namespaces/inkscape"
   xmlns:sodipodi="http://sodipodi.sourceforge.net/DTD/sodipodi-0.dtd"
   xmlns:xlink="http://www.w3.org/1999/xlink"
   xmlns="http://www.w3.org/2000/svg"
   xmlns:svg="http://www.w3.org/2000/svg">
  <sodipodi:namedview
     id="namedview14"
     pagecolor="#ffffff"
     bordercolor="#000000"
     borderopacity="0.25"
     inkscape:showpageshadow="2"
     inkscape:pageopacity="0.0"
     inkscape:pagecheckerboard="0"
     inkscape:deskcolor="#d1d1d1"
     inkscape:zoom="0.76269531"
     inkscape:cx="399.242"
     inkscape:cy="189.45967"
     inkscape:window-width="1865"
     inkscape:window-height="1011"
     inkscape:window-x="0"
     inkscape:window-y="0"
     inkscape:window-maximized="1"
     inkscape:current-layer="svg14" />
  <defs
     id="defs10">
    <linearGradient
       id="bgG"
       x1="0"
       y1="0"
       x2="0.4"
       y2="1">
      <stop
         offset="0%"
         stop-color="#1e2d52"
         id="stop1" />
      <stop
         offset="100%"
         stop-color="#0f0f1a"
         id="stop2" />
    </linearGradient>
    <linearGradient
       id="toiletG"
       x1="9.9094721"
       y1="85.434749"
       x2="9.9094721"
       y2="185.43344"
       gradientTransform="matrix(0.86859428,0,0,1.2489007,6.7941034,-32.304162)"
       gradientUnits="userSpaceOnUse">
      <stop
         offset="0%"
         stop-color="#ffffff"
         id="stop3" />
      <stop
         offset="100%"
         stop-color="#c4d8ea"
         id="stop4" />
    </linearGradient>
    <linearGradient
       id="phoneG"
       x1="0"
       y1="0"
       x2="0"
       y2="1">
      <stop
         offset="0%"
         stop-color="#1e3060"
         id="stop5" />
      <stop
         offset="100%"
         stop-color="#0b1225"
         id="stop6" />
    </linearGradient>
    <linearGradient
       id="screenG"
       x1="138.07794"
       y1="39.147745"
       x2="138.07794"
       y2="55.776034"
       gradientTransform="matrix(0.97328855,0,0,1.1486758,-3.5738017,-3.7680631)"
       gradientUnits="userSpaceOnUse">
      <stop
         offset="0%"
         stop-color="#5dd4f4"
         id="stop7" />
      <stop
         offset="100%"
         stop-color="#1565c0"
         id="stop8" />
    </linearGradient>
    <radialGradient
       id="faceG"
       cx="50%"
       cy="40%"
       r="60%">
      <stop
         offset="0%"
         stop-color="#ffd09b"
         id="stop9" />
      <stop
         offset="100%"
         stop-color="#e8956d"
         id="stop10" />
    </radialGradient>
    <radialGradient
       inkscape:collect="always"
       xlink:href="#faceG"
       id="radialGradient14"
       cx="96.379997"
       cy="25.500001"
       r="21.120001"
       fx="96.379997"
       fy="25.500001"
       gradientUnits="userSpaceOnUse"
       gradientTransform="matrix(1.1164009,0,0,1.1746013,-11.474799,-1.9939472)" />
  </defs>
  <!-- Background -->
  <rect
     x="-20"
     y="0"
     width="200"
     height="200"
     rx="32"
     fill="url(#bgG)"
     id="rect10" />
  <!-- Toilet bowl -->
  <path
     style="fill:url(#toiletG);stroke-width:0.439991"
     d="M 98.868938,139.69104 H 42.355813 V 86.04442 c 0,-6.297776 -4.626737,-11.403563 -10.334559,-11.403563 h -6.088142 c -5.7074,0 -10.334552,5.105322 -10.334552,11.403563 0,14.77245 0,95.62024 0,104.91391 0,4.46244 3.27842,8.07998 7.322525,8.07998 h 42.937428 c 3.033811,0 5.753895,-2.0646 6.838327,-5.1913 l 7.829346,-22.5691 c 11.69543,-5.65487 19.959554,-15.75738 21.503064,-27.56443 0.27729,-2.11775 -1.21134,-4.02244 -3.160312,-4.02244 z"
     fill="url(#toiletG)"
     stroke="#8aafc8"
     stroke-width="2.4"
     id="path10" />
  <!-- Body / red shirt -->
  <path
     d="m 82.17,95.317 c 0.047,-0.334 0.098,-0.665 0.146,-0.997 L 62.877,71.3      c -1.723,-2.039 -2.548,-4.629 -2.324,-7.291 0.226,-2.662 1.472,-5.076      3.511,-6.8 1.803,-1.521 4.095,-2.36 6.45,-2.36 2.951,0 5.738,1.292      7.645,3.546 l 20.607,24.406 29.236,-12.184 c 1.229,-0.511 2.521,-0.217309      3.842,-0.217309 1.135,0 2.227,0.996559 3.259,0.601478 l -0.46812,0.08487      c 3.538,-2.645 -11.40875,5.13485 -3.9474,-3.774149 -6.43388,3.72394      -0.39205,-5.486816 -3.93205,-2.842816 L 101.846,75.286 83.291,50.104      C 82.045,48.414 80.26,47.364 78.35,47 78.013,46.879 77.671,46.768      77.318,46.68 68.78,44.55 56.405,49.187 51.37,63.83 c -3.282,9.73      -5.309,17.823 -6.252,26.086 -1.011,8.869 -0.769,17.933 0.57,29.434      3.129,16.102 14.164,17.754 23.328,17.637 0.612,-0.008 1.201,-0.02      1.769,-0.039 0.133,0.004 0.262,0.02 0.394,0.02 h 8.086 30.394      l 5.263,50.666 c 0.668,6.43 6.098,11.212 12.421,11.212 0.431,0      0.865,-0.022 1.304,-0.068 6.867,-0.715 11.856,-6.858 11.144,-13.727      l -6.429,-61.877 c -0.664,-6.377 -6.02,-11.208 -12.433,-11.208      l -33.355648,-2.84241 -3.257294,1.26329      C 84.335058,104.86288 81.396,100.806 82.17,95.317 Z"
     fill="#e94560"
     id="path11" />
  <!-- Arm (skin) -->
  <path
     d="M 128.772,72.464 98.182,85.211 76.63,59.688      c -2.852,-3.375 -7.899,-3.801 -11.274,-0.951      -3.375,2.852 -3.801,7.898 -0.949,11.275 h -0.002      l 25.335,30 c 1.551,1.837 3.813,2.836 6.123,2.836      1.032,0 2.074,-0.2 3.066,-0.613 l 35.998,-15.001      c 4.078,-1.7 6.007,-6.384 4.308,-10.462      -1.701,-4.079 -6.384,-6.006 -10.463,-4.308 z"
     fill="url(#faceG)"
     id="path12" />
  <!-- Face background (shows through hair ring's evenodd hole) -->
  <ellipse
     cx="96.123917"
     cy="32.092983"
     fill="url(#faceG)"
     id="circle12"
     style="fill:url(#radialGradient14);stroke-width:1.14513"
     rx="19.648655"
     ry="20.672983" />
  <!-- Hair ring + face features (evenodd: ring=hair, hole=face, rects=eyebrows) -->
  <path
     style="stroke-width:3.16593"
     fill-rule="evenodd"
     d="M 108.50744,34.26954 A 12.540195,12.820437 0 0 1 96.377424,43.872864 12.540195,12.820437 0 0 1 84.247409,34.26954 Z M 71.328345,31.068433 c 0,-14.142495 11.240775,-25.6088641 25.049079,-25.6088641 13.833356,0 25.049086,11.4919781 25.049086,25.6088641 0,14.142496 -11.24078,25.608864 -25.049086,25.608864 -13.833354,0 -25.049079,-11.491978 -25.049079,-25.608864 z m 6.26227,0 c 0,10.586065 8.410229,19.206647 18.786809,19.206647 10.354656,0 18.786816,-8.598176 18.786816,-19.206647 0,-10.586064 -8.41023,-19.206648 -18.786816,-19.206648 -10.354662,0 -18.786809,8.598176 -18.786809,19.206648 z m 9.393405,-9.603324 h 6.262267 v 6.402216 H 86.98402 Z m 12.524543,0 h 6.262267 v 6.402216 h -6.262267 z"
     fill="#3d2510"
     id="path13" />
  <!-- Phone screen glow (behind phone body, visible through evenodd cutout) -->
  <rect
     x="130.81587"
     y="41.200001"
     width="16.184124"
     height="19.100512"
     rx="1.5364673"
     fill="url(#screenG)"
     id="rect13"
     style="fill:url(#screenG);stroke-width:1.05735" />
  <g
     id="g19"
     transform="translate(0.85727009,0.72190235)">
    <ellipse
       style="fill:#ff0000;stroke-width:0.442914"
       id="path15-15"
       cx="133.31107"
       cy="47.771782"
       rx="1.1203585"
       ry="1.184379" />
    <ellipse
       style="fill:#ffff00;stroke-width:0.442914"
       id="path15-5-9"
       cx="136.52359"
       cy="47.771782"
       rx="1.1203585"
       ry="1.184379" />
    <ellipse
       style="fill:#ff0000;stroke-width:0.442914"
       id="path15-2-4"
       cx="139.73613"
       cy="47.771782"
       rx="1.1203585"
       ry="1.184379" />
    <ellipse
       style="fill:#00ff00;stroke-width:0.442914"
       id="path15-1-9"
       cx="142.94865"
       cy="47.771782"
       rx="1.1203585"
       ry="1.184379" />
  </g>
  <g
     id="g18"
     transform="translate(0.88427814,0.86661417)">
    <ellipse
       style="fill:#ffff00;stroke-width:0.442914"
       id="path15-9"
       cx="133.28406"
       cy="51.133358"
       rx="1.1203585"
       ry="1.184379" />
    <ellipse
       style="fill:#00ff00;stroke-width:0.442914"
       id="path15-5-1"
       cx="136.49658"
       cy="51.133358"
       rx="1.1203585"
       ry="1.184379" />
    <ellipse
       style="fill:#ff00ff;stroke-width:0.442914"
       id="path15-2-7"
       cx="139.70912"
       cy="51.133358"
       rx="1.1203585"
       ry="1.184379" />
    <ellipse
       style="fill:#ff00ff;stroke-width:0.442914"
       id="path15-1-7"
       cx="142.92165"
       cy="51.133358"
       rx="1.1203585"
       ry="1.184379" />
  </g>
  <g
     id="g17"
     transform="translate(0.89628681,0.76824584)">
    <ellipse
       style="fill:#ff00ff;stroke-width:0.442914"
       id="path15-159"
       cx="133.27205"
       cy="54.738014"
       rx="1.1203585"
       ry="1.184379" />
    <ellipse
       style="fill:#ffff00;stroke-width:0.442914"
       id="path15-5-7"
       cx="136.48457"
       cy="54.738014"
       rx="1.1203585"
       ry="1.184379" />
    <ellipse
       style="fill:#00ff00;stroke-width:0.442914"
       id="path15-2-76"
       cx="139.69711"
       cy="54.738014"
       rx="1.1203585"
       ry="1.184379" />
    <ellipse
       style="fill:#ff0000;stroke-width:0.442914"
       id="path15-1-73"
       cx="142.90964"
       cy="54.738014"
       rx="1.1203585"
       ry="1.184379" />
  </g>
  <!-- Phone body (evenodd frame: fills outer rect, cuts screen, fills bottom bar) -->
  <path
     style="stroke-width:1.65374"
     fill-rule="evenodd"
     clip-rule="evenodd"
     d="m 150.27596,42.207299 c 0,-2.739994 -2.22114,-4.961217        -4.96122,-4.961217 h -13.22991 c -2.74,0 -4.96122,2.221223        -4.96122,4.961217 v 26.45983 c 0,2.74008 2.22122,4.96122        4.96122,4.96122 h 13.22991 c 2.74008,0 4.96122,-2.22114        4.96122,-4.96122 z        m -3.30748,0 c 0,-0.913328 -0.74038,-1.653739        -1.65374,-1.653739 h -13.22991 c -0.91333,0        -1.65374,0.740411 -1.65374,1.653739 v 18.191135 h 16.53739 z        m -16.53739,26.45983 v -4.961217 h 16.53739 v 4.961217        c 0,0.91336 -0.74038,1.65374 -1.65374,1.65374 h -13.22991        c -0.91333,0 -1.65374,-0.74038 -1.65374,-1.65374 z"
     fill="url(#phoneG)"
     stroke="#3d78c8"
     stroke-width="1.2"
     id="path14" />
  <!-- Phone home button -->
  <circle
     cx="139.33"
     cy="67.33"
     r="2"
     fill="#5baee8"
     id="circle14" />
  <!-- Accent border ring -->
  <rect
     x="-17"
     y="3"
     width="194"
     height="194"
     rx="29"
     fill="none"
     stroke="#e94560"
     stroke-width="6"
     id="rect14" />
  <g
     id="g20"
     transform="translate(0.80726703,0.76824584)">
    <ellipse
       style="fill:#ff0000;stroke-width:0.442914"
       id="path15"
       cx="133.36107"
       cy="44.219151"
       rx="1.1203585"
       ry="1.184379" />
    <ellipse
       style="fill:#ffff00;stroke-width:0.442914"
       id="path15-5"
       cx="136.57359"
       cy="44.219151"
       rx="1.1203585"
       ry="1.184379" />
    <ellipse
       style="fill:#ff00ff;stroke-width:0.442914"
       id="path15-2"
       cx="139.78613"
       cy="44.219151"
       rx="1.1203585"
       ry="1.184379" />
    <ellipse
       style="fill:#00ff00;stroke-width:0.442914"
       id="path15-1"
       cx="142.99866"
       cy="44.219151"
       rx="1.1203585"
       ry="1.184379" />
  </g>
</svg>
